<svg xmlns="http://www.w3.org/2000/svg" xmlns:xlink="http://www.w3.org/1999/xlink" version="1.1" width="256" height="256" viewBox="0 0 256 256" xml:space="preserve">

<defs>
</defs>
<g style="stroke: none; stroke-width: 0; stroke-dasharray: none; stroke-linecap: butt; stroke-linejoin: miter; stroke-miterlimit: 10; fill: none; fill-rule: nonzero; opacity: 1;" transform="translate(1.4065934065934016 1.4065934065934016) scale(2.81 2.81)" >
	<circle cx="34.502" cy="34.502" r="33.512" style="stroke: none; stroke-width: 1; stroke-dasharray: none; stroke-linecap: butt; stroke-linejoin: miter; stroke-miterlimit: 10; fill: rgb(240,240,240); fill-rule: nonzero; opacity: 1;" transform="  matrix(1 0 0 1 0 0) "/>
	<circle cx="34.506" cy="34.506" r="26.276" style="stroke: none; stroke-width: 1; stroke-dasharray: none; stroke-linecap: butt; stroke-linejoin: miter; stroke-miterlimit: 10; fill: rgb(255,255,255); fill-rule: nonzero; opacity: 1;" transform="  matrix(1 0 0 1 0 0) "/>
	<path d="M 87.032 87.032 L 87.032 87.032 c -2.637 2.637 -6.913 2.637 -9.55 0 L 61.68 71.231 l 9.55 -9.55 l 15.801 15.801 C 89.669 80.119 89.669 84.394 87.032 87.032 z" style="stroke: none; stroke-width: 1; stroke-dasharray: none; stroke-linecap: butt; stroke-linejoin: miter; stroke-miterlimit: 10; fill: rgb(198,84,84); fill-rule: nonzero; opacity: 1;" transform=" matrix(1 0 0 1 0 0) " stroke-linecap="round" />
	<polyline points="55.76,60.41 64.13,68.78 68.78,64.13 60.41,55.76 " style="stroke: none; stroke-width: 1; stroke-dasharray: none; stroke-linecap: butt; stroke-linejoin: miter; stroke-miterlimit: 10; fill: rgb(240,240,240); fill-rule: nonzero; opacity: 1;" transform="  matrix(1 0 0 1 0 0) "/>
	<path d="M 34.502 61.779 c -7.286 0 -14.136 -2.838 -19.287 -7.99 c -5.152 -5.152 -7.989 -12.001 -7.989 -19.287 s 2.837 -14.135 7.989 -19.287 s 12.002 -7.989 19.287 -7.989 s 14.135 2.837 19.287 7.989 l 0 0 l 0 0 c 5.153 5.152 7.99 12.002 7.99 19.287 s -2.838 14.135 -7.99 19.287 C 48.638 58.942 41.788 61.779 34.502 61.779 z M 34.502 9.226 c -6.751 0 -13.099 2.629 -17.873 7.403 S 9.226 27.751 9.226 34.502 s 2.629 13.099 7.403 17.873 c 4.774 4.774 11.122 7.404 17.873 7.404 s 13.099 -2.629 17.873 -7.404 c 4.774 -4.774 7.404 -11.121 7.404 -17.873 s -2.629 -13.099 -7.404 -17.873 l 0 0 C 47.601 11.855 41.254 9.226 34.502 9.226 z" style="stroke: none; stroke-width: 1; stroke-dasharray: none; stroke-linecap: butt; stroke-linejoin: miter; stroke-miterlimit: 10; fill: rgb(0,0,0); fill-rule: nonzero; opacity: 1;" transform=" matrix(1 0 0 1 0 0) " stroke-linecap="round" />
	<path d="M 34.502 69.014 c -9.218 0 -17.885 -3.59 -24.404 -10.109 c -13.456 -13.456 -13.456 -35.351 0 -48.807 c 13.456 -13.456 35.351 -13.456 48.807 0 c 6.519 6.519 10.109 15.185 10.109 24.404 s -3.59 17.885 -10.109 24.403 C 52.387 65.424 43.72 69.014 34.502 69.014 z M 34.502 2.006 c -8.327 0 -16.65 3.168 -22.989 9.507 c -12.676 12.677 -12.676 33.302 0 45.978 c 6.141 6.141 14.305 9.523 22.989 9.523 s 16.848 -3.382 22.989 -9.523 s 9.523 -14.305 9.523 -22.989 s -3.382 -16.848 -9.523 -22.989 l 0 0 C 51.154 5.175 42.827 2.006 34.502 2.006 z" style="stroke: none; stroke-width: 1; stroke-dasharray: none; stroke-linecap: butt; stroke-linejoin: miter; stroke-miterlimit: 10; fill: rgb(0,0,0); fill-rule: nonzero; opacity: 1;" transform=" matrix(1 0 0 1 0 0) " stroke-linecap="round" />
	<path d="M 82.257 90.006 c -1.986 0 -3.972 -0.756 -5.483 -2.267 L 60.973 71.938 c -0.391 -0.391 -0.391 -1.024 0 -1.414 l 9.55 -9.55 c 0.391 -0.391 1.024 -0.391 1.414 0 l 15.801 15.801 c 3.023 3.023 3.023 7.941 0 10.964 C 86.228 89.25 84.242 90.006 82.257 90.006 z M 63.095 71.23 l 15.094 15.094 c 2.244 2.244 5.894 2.243 8.136 0 c 2.243 -2.243 2.243 -5.893 0 -8.136 L 71.23 63.095 L 63.095 71.23 z" style="stroke: none; stroke-width: 1; stroke-dasharray: none; stroke-linecap: butt; stroke-linejoin: miter; stroke-miterlimit: 10; fill: rgb(0,0,0); fill-rule: nonzero; opacity: 1;" transform=" matrix(1 0 0 1 0 0) " stroke-linecap="round" />
	<path d="M 64.13 69.781 c -0.256 0 -0.512 -0.098 -0.707 -0.293 l -8.371 -8.37 c -0.391 -0.391 -0.391 -1.024 0 -1.414 c 0.391 -0.391 1.024 -0.391 1.414 0 l 7.664 7.663 l 3.236 -3.236 l -7.663 -7.663 c -0.391 -0.391 -0.391 -1.024 0 -1.414 c 0.391 -0.391 1.024 -0.391 1.414 0 l 8.37 8.37 c 0.391 0.391 0.391 1.024 0 1.414 l -4.65 4.65 C 64.642 69.683 64.386 69.781 64.13 69.781 z" style="stroke: none; stroke-width: 1; stroke-dasharray: none; stroke-linecap: butt; stroke-linejoin: miter; stroke-miterlimit: 10; fill: rgb(0,0,0); fill-rule: nonzero; opacity: 1;" transform=" matrix(1 0 0 1 0 0) " stroke-linecap="round" />
	<polygon points="33.61,15.84 16.28,42.95 50.95,42.95 " style="stroke: none; stroke-width: 1; stroke-dasharray: none; stroke-linecap: butt; stroke-linejoin: miter; stroke-miterlimit: 10; fill: rgb(249,198,107); fill-rule: nonzero; opacity: 1;" transform="  matrix(1 0 0 1 0 0) "/>
	<path d="M 50.949 43.955 H 16.28 c -0.365 0 -0.702 -0.199 -0.877 -0.52 c -0.176 -0.321 -0.163 -0.712 0.034 -1.019 l 17.334 -27.117 c 0.368 -0.575 1.318 -0.575 1.686 0 l 17.334 27.117 c 0.196 0.308 0.21 0.698 0.034 1.019 C 51.65 43.756 51.314 43.955 50.949 43.955 z M 18.106 41.954 h 31.016 l -15.508 -24.26 L 18.106 41.954 z" style="stroke: none; stroke-width: 1; stroke-dasharray: none; stroke-linecap: butt; stroke-linejoin: miter; stroke-miterlimit: 10; fill: rgb(0,0,0); fill-rule: nonzero; opacity: 1;" transform=" matrix(1 0 0 1 0 0) " stroke-linecap="round" />
	<path d="M 33.614 39.503 c -0.552 0 -1 -0.448 -1 -1 v -1.031 c 0 -0.552 0.448 -1 1 -1 s 1 0.448 1 1 v 1.031 C 34.614 39.055 34.167 39.503 33.614 39.503 z" style="stroke: none; stroke-width: 1; stroke-dasharray: none; stroke-linecap: butt; stroke-linejoin: miter; stroke-miterlimit: 10; fill: rgb(0,0,0); fill-rule: nonzero; opacity: 1;" transform=" matrix(1 0 0 1 0 0) " stroke-linecap="round" />
	<path d="M 33.614 34.79 c -0.552 0 -1 -0.448 -1 -1 v -7.945 c 0 -0.552 0.448 -1 1 -1 s 1 0.448 1 1 v 7.945 C 34.614 34.342 34.167 34.79 33.614 34.79 z" style="stroke: none; stroke-width: 1; stroke-dasharray: none; stroke-linecap: butt; stroke-linejoin: miter; stroke-miterlimit: 10; fill: rgb(0,0,0); fill-rule: nonzero; opacity: 1;" transform=" matrix(1 0 0 1 0 0) " stroke-linecap="round" />
</g>
</svg>