<?xml version="1.0" standalone="no"?>
<!DOCTYPE svg PUBLIC "-//W3C//DTD SVG 20010904//EN"
 "http://www.w3.org/TR/2001/REC-SVG-20010904/DTD/svg10.dtd">
<svg version="1.0" xmlns="http://www.w3.org/2000/svg"
 width="2800.000000pt" height="2000.000000pt" viewBox="0 0 2800.000000 2000.000000"
 preserveAspectRatio="xMidYMid meet" >

<g transform="translate(0.000000,2000.000000) scale(0.100000,-0.100000)"
fill="#11AED0" stroke="none">
<path d="M20820 17739 c-78 -31 -163 -125 -225 -249 -26 -53 -85 -204 -101
-257 -2 -9 -24 -3 -71 18 -369 166 -955 112 -1244 -115 -103 -81 -207 -245
-245 -386 -25 -94 -23 -292 4 -382 22 -74 41 -113 42 -88 2 52 34 239 55 318
26 96 78 220 116 273 l21 30 40 -61 c53 -81 176 -202 285 -279 173 -124 459
-241 711 -293 l110 -22 53 -109 c30 -60 57 -111 61 -113 3 -2 12 20 18 49 25
124 115 254 206 297 35 17 58 21 112 18 l67 -3 3 80 c2 44 4 81 5 81 1 1 36
-5 77 -12 110 -20 189 -6 267 47 56 39 102 106 163 237 121 261 -66 768 -331
901 -66 33 -146 41 -199 20z m201 -1068 c53 -1 120 4 149 9 29 6 55 8 57 6 10
-10 -54 -68 -102 -91 -44 -22 -68 -27 -125 -26 -77 1 -151 16 -162 35 -4 6 -8
27 -8 47 l0 36 48 -8 c26 -4 90 -8 143 -8z"/>
<path d="M19533 16223 c19 -114 134 -160 286 -114 44 14 71 27 71 36 0 24 -18
26 -72 10 -28 -8 -79 -15 -113 -15 -75 0 -109 22 -125 81 -8 30 -16 39 -32 39
-18 0 -20 -4 -15 -37z"/>
<path d="M20665 16186 c-40 -18 -70 -52 -95 -109 l-21 -47 23 -33 c18 -26 23
-44 22 -94 -1 -55 1 -62 21 -67 32 -8 85 10 117 41 52 50 27 82 -28 34 -46
-41 -61 -40 -56 2 2 21 -5 48 -22 80 -28 52 -27 58 16 120 17 24 22 26 36 15
8 -7 24 -32 34 -55 22 -50 32 -58 48 -38 10 12 8 24 -12 65 -22 43 -23 50 -8
50 9 0 25 -7 36 -15 28 -21 54 -19 54 5 0 15 -13 27 -42 40 -50 23 -82 24
-123 6z"/>
<path d="M19157 16126 c-46 -55 -88 -74 -130 -58 -25 9 -34 9 -44 -1 -11 -11
-10 -17 6 -32 25 -22 86 -23 127 -2 41 21 104 92 104 117 0 32 -25 23 -63 -24z"/>
<path d="M19677 15962 c-24 -26 -31 -75 -17 -117 23 -68 90 -69 108 -1 25 90
-40 174 -91 118z"/>
<path d="M19034 15865 c-10 -24 3 -32 51 -33 25 -1 54 -6 64 -12 30 -16 51
-12 51 9 0 38 -153 72 -166 36z"/>
<path d="M19301 15711 c-21 -13 -26 -93 -7 -128 18 -35 71 -83 92 -83 24 0 30
32 9 44 -51 29 -67 55 -64 106 3 53 -7 75 -30 61z"/>
<path d="M20604 15554 c-117 -324 -303 -553 -506 -625 -21 -7 -38 -17 -38 -21
0 -25 138 10 250 64 112 54 225 165 287 284 39 73 103 248 103 279 0 7 -12 15
-27 17 -16 3 -36 9 -45 13 -13 5 -20 2 -24 -11z"/>
<path d="M19965 15407 c-61 -42 -89 -72 -80 -86 10 -18 24 -13 73 25 26 20 62
42 80 50 19 8 32 19 30 26 -9 26 -53 19 -103 -15z"/>
<path d="M15600 15214 c-84 -56 -128 -103 -149 -160 -136 -361 119 -1201 575
-1902 141 -216 275 -382 426 -528 143 -138 269 -224 376 -255 35 -10 47 -20
68 -60 25 -45 50 -63 98 -71 11 -2 35 -31 59 -75 23 -40 46 -73 52 -73 22 0
205 61 205 69 0 4 -23 49 -52 100 -43 79 -50 96 -40 112 16 25 15 81 -1 103
-12 16 -15 16 -57 -3 -219 -99 -606 204 -976 764 -467 708 -732 1588 -579
1923 14 31 33 64 42 74 23 26 15 22 -47 -18z"/>
<path d="M15816 15009 c-30 -24 -34 -39 -8 -39 28 0 123 -48 179 -91 29 -21
62 -39 74 -39 151 0 454 -413 592 -805 19 -55 59 -149 87 -210 111 -236 198
-480 241 -676 29 -134 32 -334 7 -391 l-17 -38 24 0 c46 0 75 22 103 79 25 52
27 64 26 181 -1 196 -65 445 -193 750 -255 605 -691 1193 -954 1286 -59 21
-129 18 -161 -7z"/>
<path d="M9700 14793 c0 -13 25 -31 98 -65 318 -154 773 -543 1395 -1193 308
-321 533 -578 789 -899 113 -141 146 -191 106 -159 -42 34 -249 72 -506 94
-181 15 -599 7 -782 -16 -400 -49 -821 -159 -1149 -301 -136 -58 -163 -76
-143 -96 8 -8 37 0 119 35 418 178 844 285 1303 328 368 33 997 -9 1131 -76
120 -61 249 -220 574 -710 170 -255 396 -618 389 -624 -2 -3 -14 5 -27 16 -74
68 -239 144 -492 226 -403 131 -753 187 -1165 187 -377 0 -641 -40 -947 -141
-97 -33 -123 -45 -123 -60 0 -10 3 -20 8 -22 4 -3 66 15 137 38 672 223 1481
182 2267 -113 196 -74 249 -105 358 -212 68 -67 99 -107 143 -186 31 -56 59
-109 63 -118 6 -15 -118 -16 -1640 -16 -1810 0 -1704 -3 -1879 61 -122 44
-208 104 -503 350 -150 126 -300 247 -333 269 -71 49 -164 92 -263 122 -72 22
-82 22 -729 26 l-656 3 23 -133 c12 -73 21 -134 19 -137 -2 -2 -110 58 -239
133 l-235 137 -433 -3 c-427 -3 -434 -3 -483 -26 -110 -50 -175 -119 -214
-225 -21 -57 -21 -65 -21 -937 0 -484 4 -880 8 -880 5 0 31 -14 58 -32 45 -29
92 -67 364 -293 120 -99 236 -175 347 -227 147 -68 233 -96 452 -151 34 -8
1130 -12 4226 -17 l4180 -5 67 -33 c92 -45 126 -89 218 -277 43 -88 155 -317
250 -510 95 -192 229 -465 297 -605 272 -554 376 -767 518 -1055 139 -282 208
-423 542 -1105 75 -151 181 -369 238 -485 137 -282 421 -850 477 -955 25 -47
69 -130 98 -185 89 -169 220 -418 246 -465 13 -25 92 -174 176 -332 84 -158
156 -288 161 -288 4 0 7 480 7 1068 l1 1067 82 56 c197 133 609 263 1003 316
229 30 845 19 903 -16 6 -4 22 -70 35 -147 35 -209 161 -957 219 -1309 l52
-310 81 -32 c44 -18 122 -44 173 -57 52 -14 95 -27 97 -29 3 -3 -36 -281 -40
-283 0 0 -109 -43 -241 -94 -486 -189 -959 -388 -1009 -425 -11 -8 -16 -18
-12 -22 11 -11 2119 96 2130 108 2 2 -3 51 -10 109 -64 486 -82 626 -78 631 2
3 24 12 50 19 25 7 48 19 51 26 2 7 -16 172 -42 366 -77 588 -132 1057 -180
1558 -3 30 -10 109 -15 175 -6 66 -12 145 -15 175 -3 30 -7 82 -10 116 -31
369 -60 988 -60 1284 l0 225 84 170 c46 94 107 220 136 280 29 61 126 263 215
450 89 187 182 381 205 430 23 50 84 175 134 279 50 104 91 190 91 191 0 2 45
97 101 211 55 115 105 219 110 232 5 13 17 22 30 22 18 0 20 -4 15 -37 -3 -21
-8 -103 -11 -183 -3 -80 -8 -161 -10 -180 -2 -19 -7 -91 -10 -160 -3 -69 -8
-145 -10 -170 -2 -25 -7 -103 -10 -175 -3 -71 -8 -146 -10 -165 -2 -19 -7
-102 -11 -185 -3 -82 -8 -157 -9 -165 -1 -8 -6 -80 -9 -160 -4 -80 -9 -161
-11 -180 -2 -19 -7 -91 -10 -160 -3 -69 -8 -145 -10 -170 -2 -25 -7 -103 -11
-175 -4 -71 -10 -177 -13 -235 l-6 -105 233 -560 c129 -308 409 -981 624
-1495 215 -514 445 -1068 513 -1230 l122 -295 113 -57 c62 -32 115 -59 116
-61 2 -2 -1 -21 -7 -42 -8 -29 -61 -95 -203 -254 -391 -438 -566 -664 -566
-727 0 -21 36 -15 179 33 241 80 1371 520 1394 543 5 4 -10 98 -32 208 -23
110 -41 204 -41 209 0 6 33 23 73 38 111 44 277 138 277 157 0 6 -544 1495
-1192 3263 l-179 490 6 200 c3 110 8 247 10 305 3 58 7 191 10 295 3 105 8
233 10 285 2 52 7 181 10 285 3 105 7 244 10 310 3 66 7 192 10 280 3 88 7
221 10 295 3 74 7 207 10 295 3 88 7 219 10 290 3 72 7 211 10 310 7 227 14
349 24 450 35 320 -68 804 -284 1340 -104 256 -116 283 -127 265 -166 -284
-344 -479 -575 -630 -92 -60 -116 -84 -376 -375 -152 -170 -305 -341 -340
-378 l-62 -69 -327 246 c-181 136 -328 250 -328 254 0 4 44 36 98 71 161 106
577 413 768 565 376 301 569 503 604 634 38 146 -146 950 -471 2045 -33 112
-35 117 -55 117 -22 0 -18 -24 37 -211 265 -907 434 -1605 446 -1844 l6 -110
-52 -77 c-171 -254 -774 -734 -1692 -1344 -152 -101 -281 -189 -287 -196 -7
-9 -7 -19 -2 -28 6 -8 10 -18 10 -21 0 -3 -44 -40 -98 -82 l-98 -75 -26 -99
c-154 -580 -230 -872 -292 -1122 -267 -1070 -441 -1934 -471 -2346 -4 -44 -8
-97 -10 -118 -2 -21 34 -266 81 -545 46 -279 84 -514 84 -522 0 -13 -23 -16
-147 -17 -436 -7 -870 -97 -1317 -274 -176 -70 -267 -131 -347 -232 -22 -27
-39 -43 -39 -35 0 8 12 54 26 103 25 87 120 447 170 645 75 299 214 1122 259
1529 40 369 38 740 -5 913 -11 45 -22 84 -25 86 -2 2 -12 2 -21 -2 -12 -5 -15
-13 -10 -34 34 -146 40 -217 40 -457 0 -347 -31 -629 -140 -1280 -73 -438
-134 -726 -242 -1144 l-47 -185 -5 2405 c-5 2171 -7 2409 -21 2455 -61 194
-229 343 -419 374 -43 6 -865 10 -2455 10 l-2390 0 -107 193 c-86 154 -112
211 -133 287 -36 135 -55 298 -55 469 0 159 13 230 82 456 171 564 550 1130
1016 1519 77 65 95 93 66 103 -19 6 -159 -112 -299 -252 -203 -203 -403 -462
-539 -699 -163 -282 -291 -604 -347 -873 -32 -152 -26 -465 11 -628 5 -22 10
-44 10 -49 0 -5 -58 84 -130 198 -166 265 -360 552 -545 806 -160 220 -207
305 -226 412 -19 108 -4 176 77 333 119 233 239 423 404 637 106 138 399 438
530 542 89 71 280 200 340 231 l35 18 -38 -42 c-62 -69 -132 -183 -227 -372
-50 -98 -90 -181 -90 -184 0 -14 284 263 368 357 103 118 157 195 173 249 11
34 10 42 -6 59 -23 25 -36 25 -87 -1 -27 -14 -44 -17 -51 -10 -13 13 -116 -39
-248 -128 -454 -304 -857 -774 -1138 -1327 -85 -167 -107 -268 -81 -379 5 -22
8 -41 6 -43 -2 -1 -38 41 -81 95 -112 140 -336 411 -428 517 -236 272 -903
939 -1152 1151 -217 185 -422 329 -570 400 -115 56 -145 64 -145 38z m12087
-3907 l-63 -248 -108 142 c-60 78 -104 145 -100 150 28 25 329 219 331 213 1
-5 -26 -120 -60 -257z m-1327 -5168 c7 -40 13 -82 13 -92 2 -15 -20 -28 -103
-63 -57 -24 -107 -47 -110 -50 -3 -3 49 -3 116 1 l121 6 22 -133 c28 -168 60
-391 58 -393 -1 0 -54 6 -117 14 -168 21 -597 20 -765 -2 -289 -37 -485 -85
-745 -179 -119 -43 -207 -87 -288 -143 -35 -24 -65 -44 -67 -44 -3 0 -5 126
-5 281 l0 280 32 47 c109 159 187 207 528 329 308 109 590 170 960 206 19 2
103 5 187 5 l151 2 12 -72z"/>
<path d="M21834 13946 c-7 -18 25 -142 93 -356 51 -162 157 -479 182 -542 9
-24 5 -38 -29 -107 -90 -178 -259 -278 -505 -299 -70 -5 -90 -10 -90 -22 0
-21 98 -26 190 -10 192 33 355 142 433 288 l30 56 17 -40 c33 -79 32 -85 -27
-132 -119 -97 -414 -382 -637 -617 -329 -346 -461 -492 -461 -511 0 -39 49 4
215 186 226 248 759 780 890 889 55 46 134 106 175 133 69 46 92 76 64 85 -6
2 -42 -17 -79 -42 -37 -25 -69 -45 -71 -45 -10 0 -253 722 -305 909 -22 80
-45 156 -49 169 -11 25 -28 29 -36 8z"/>
<path d="M6036 13899 c-140 -21 -270 -117 -333 -248 -34 -71 -35 -75 -18 -88
11 -7 21 -13 24 -13 3 0 19 30 35 66 42 93 93 146 184 191 74 37 79 38 186 38
101 0 116 -2 168 -28 107 -53 189 -165 203 -281 13 -100 -25 -226 -92 -311
-42 -53 -151 -124 -240 -155 l-78 -28 -3 -123 c-4 -171 4 -249 27 -249 24 0
31 52 31 214 l0 121 53 19 c175 61 312 205 347 367 19 84 9 201 -23 271 -29
66 -103 149 -162 183 -80 47 -207 69 -309 54z"/>
<path d="M19947 13526 c-3 -8 59 -93 148 -202 l153 -189 7 -80 c28 -315 203
-563 478 -676 80 -33 110 -37 105 -12 -2 9 -31 27 -71 44 -107 43 -175 88
-258 169 -61 61 -85 94 -122 170 -57 115 -76 186 -85 307 l-7 92 -160 195
c-88 108 -165 196 -171 196 -7 0 -14 -6 -17 -14z"/>
<path d="M19590 13007 c-53 -28 -70 -42 -70 -59 0 -24 25 -23 59 3 59 43 146
34 195 -20 20 -22 41 -27 50 -12 11 17 -6 40 -52 71 -37 24 -56 30 -101 30
-31 0 -67 -6 -81 -13z"/>
<path d="M6070 12450 c-38 -38 -13 -120 38 -120 36 0 57 26 57 70 0 65 -53 92
-95 50z"/>
<path d="M16934 11838 c-27 -18 -77 -42 -112 -53 -35 -12 -63 -25 -62 -31 2
-18 71 -6 129 22 32 16 57 24 54 18 -2 -7 1 -15 8 -20 8 -5 24 6 44 31 l32 38
101 -13 c56 -7 108 -17 115 -24 8 -6 27 -32 41 -58 l27 -46 -48 -10 c-66 -14
-208 -39 -266 -47 -31 -4 -47 -11 -44 -18 6 -18 105 -11 246 18 68 14 125 25
127 25 4 0 64 -113 64 -121 0 -6 -63 -22 -202 -49 -38 -8 -58 -16 -58 -26 0
-19 15 -18 155 11 66 13 123 25 127 25 13 0 50 -82 41 -89 -56 -38 -132 -104
-128 -112 11 -16 25 -10 85 36 32 25 63 45 68 45 12 0 73 -115 65 -123 -3 -4
4 -14 16 -24 12 -10 40 -52 64 -93 34 -61 49 -77 79 -88 45 -17 76 -11 117 24
51 42 50 77 -3 180 -60 116 -126 236 -136 249 -5 6 -5 17 0 25 15 23 12 63 -6
88 -15 22 -15 23 8 17 69 -16 124 -23 132 -15 15 15 -3 28 -51 35 -147 21
-356 90 -453 149 -59 36 -155 56 -268 56 -48 0 -66 -5 -108 -32z m726 -255 c0
-21 -18 -6 -36 30 l-17 32 27 -24 c14 -14 26 -31 26 -38z"/>
<path d="M20073 10332 c-195 -228 -338 -405 -338 -420 0 -9 7 -17 15 -17 19 0
410 465 410 488 0 33 -30 16 -87 -51z"/>
<path d="M15272 8328 c-8 -8 8 -48 67 -162 43 -83 125 -241 181 -351 56 -110
135 -263 175 -340 40 -77 121 -234 180 -350 59 -115 143 -277 185 -360 43 -82
161 -312 263 -510 388 -756 732 -1426 809 -1575 188 -363 241 -467 348 -675
62 -121 143 -278 180 -350 37 -71 118 -229 180 -350 62 -121 145 -283 185
-360 40 -77 111 -214 157 -305 305 -592 288 -561 309 -550 10 6 19 13 19 17 0
3 -50 103 -111 222 -62 119 -152 295 -202 391 -49 96 -127 247 -172 335 -45
88 -122 237 -170 330 -48 94 -122 238 -165 320 -43 83 -128 249 -190 370 -62
121 -136 265 -165 320 -29 55 -114 222 -190 370 -76 149 -161 315 -190 370
-29 55 -108 208 -175 340 -67 132 -153 299 -190 370 -37 72 -109 211 -160 310
-51 99 -127 248 -170 330 -43 83 -120 233 -172 335 -53 102 -144 280 -204 395
-104 202 -184 358 -453 883 -69 133 -130 242 -136 242 -6 0 -16 -5 -23 -12z"/>
<path d="M11126 7700 c-49 -15 -106 -62 -134 -109 -23 -39 -27 -58 -27 -121 0
-63 4 -82 27 -121 29 -50 85 -94 139 -109 21 -6 561 -10 1459 -10 1412 0 1425
1 1470 21 113 51 168 161 140 280 -16 67 -94 151 -155 168 -49 13 -2874 14
-2919 1z m2951 -76 c46 -36 83 -105 83 -154 -1 -78 -62 -158 -138 -180 -26 -8
-470 -10 -1462 -8 l-1425 3 -42 30 c-71 50 -102 144 -72 222 14 37 66 92 104
109 25 11 280 13 1472 11 l1441 -2 39 -31z"/>
<path d="M9410 5750 c-332 -41 -594 -146 -810 -325 -81 -68 -101 -89 -171
-180 -367 -477 -206 -1158 380 -1615 268 -209 656 -364 1021 -410 121 -15 398
-12 518 5 243 35 462 115 653 241 157 104 323 302 388 465 51 127 63 185 68
335 8 204 -20 328 -116 529 -223 463 -759 828 -1371 935 -142 24 -436 35 -560
20z m535 -64 c284 -52 579 -165 790 -304 90 -59 257 -196 316 -259 208 -220
330 -470 358 -730 19 -171 -9 -323 -89 -488 -160 -331 -501 -554 -965 -631
-133 -22 -421 -23 -563 -1 -397 63 -745 218 -1030 461 -87 74 -107 94 -193
196 -209 248 -318 582 -280 851 69 479 482 829 1079 914 127 19 452 13 577 -9z"/>
<path d="M10200 4856 l-345 -345 -120 73 c-115 69 -391 234 -762 455 -95 56
-177 100 -183 96 -31 -19 -3 -44 153 -137 527 -314 769 -458 821 -487 l58 -34
-322 -322 c-233 -233 -321 -327 -317 -339 4 -9 12 -16 19 -16 7 0 159 146 338
325 l325 324 80 -48 c44 -26 215 -128 380 -226 165 -98 370 -220 456 -272 86
-51 164 -93 173 -93 9 0 16 8 16 19 0 14 -63 57 -247 167 -137 81 -358 214
-493 294 -135 81 -264 157 -288 170 l-43 24 342 342 c247 247 340 346 336 358
-4 9 -12 16 -19 16 -7 0 -168 -155 -358 -344z"/>
</g>
</svg>
