<svg width="16" height="16" viewBox="0 0 16 16" fill="none" xmlns="http://www.w3.org/2000/svg">
<path fill-rule="evenodd" clip-rule="evenodd" d="M4.66667 8.00001C4.66667 7.26363 4.06971 6.66668 3.33333 6.66668C2.59695 6.66668 2 7.26363 2 8.00001C2 8.73639 2.59695 9.33334 3.33333 9.33334C4.06971 9.33334 4.66667 8.73639 4.66667 8.00001ZM9.33333 8.00001C9.33333 7.26363 8.73638 6.66668 8 6.66668C7.26362 6.66668 6.66667 7.26363 6.66667 8.00001C6.66667 8.73639 7.26362 9.33334 8 9.33334C8.73638 9.33334 9.33333 8.73639 9.33333 8.00001ZM12.6667 6.66668C13.403 6.66668 14 7.26363 14 8.00001C14 8.73639 13.403 9.33334 12.6667 9.33334C11.9303 9.33334 11.3333 8.73639 11.3333 8.00001C11.3333 7.26363 11.9303 6.66668 12.6667 6.66668Z" fill="#92929D"/>
</svg>
